<svg width="233" height="226" viewBox="0 0 233 226" fill="none" xmlns="http://www.w3.org/2000/svg">
<g clip-path="url(#clip0_1_183)">
<rect width="233" height="226" rx="5" fill="#44E50B" fill-opacity="0.55"/>
<path d="M168.234 128.851C153.768 82.8205 209.443 77.5604 243.178 65.0076L273.936 245.65L80.8939 236.025C134.421 213.202 226.827 159.814 168.234 128.851Z" fill="#1ADC50"/>
<path d="M41.3298 76.5565C41.3298 127.315 3.11637 115.034 -22 116.992L-4.65969 -74L122 -3.45354C81.5393 2.56871 8.76021 27.0019 41.3298 76.5565Z" fill="#1ADC50"/>
<g filter="url(#filter0_d_1_183)">
<circle cx="116" cy="35" r="19" fill="#1240E2"/>
<circle cx="116" cy="35" r="16.5" stroke="white" stroke-width="5"/>
</g>
<path d="M123.5 34.5H108.5" stroke="white" stroke-width="4"/>
<path d="M116 27V42" stroke="white" stroke-width="4"/>
<path d="M51.148 68.508H57.98L64.392 80.828V71H62.18V68.508H69.712V71H67.052V85H63.664L56.272 70.972L56.3 82.508H58.652V85H51.12V82.508H53.64L53.612 71H51.148V68.508ZM83.1984 83.516C82.4144 84.188 81.593 84.6827 80.7344 85C79.8944 85.3173 79.0077 85.476 78.0744 85.476C76.693 85.476 75.489 85.2053 74.4624 84.664C73.4357 84.1227 72.6424 83.3573 72.0824 82.368C71.541 81.36 71.2704 80.184 71.2704 78.84C71.2704 77.5147 71.5317 76.3573 72.0544 75.368C72.577 74.36 73.3144 73.576 74.2664 73.016C75.237 72.456 76.3477 72.176 77.5984 72.176C78.8304 72.176 79.8944 72.4373 80.7904 72.96C81.6864 73.464 82.377 74.1733 82.8624 75.088C83.3664 76.0027 83.6184 77.076 83.6184 78.308C83.6184 78.5133 83.609 78.7373 83.5904 78.98C83.5717 79.2227 83.5437 79.456 83.5064 79.68L73.9864 79.708C74.0424 80.5293 74.257 81.2013 74.6304 81.724C75.0224 82.228 75.5077 82.6107 76.0864 82.872C76.6837 83.1147 77.3277 83.236 78.0184 83.236C78.821 83.236 79.5677 83.1147 80.2584 82.872C80.949 82.6293 81.5744 82.2747 82.1344 81.808L83.1984 83.516ZM80.8184 77.692C80.8184 76.7213 80.529 75.9373 79.9504 75.34C79.3904 74.724 78.625 74.416 77.6544 74.416C76.7397 74.416 75.9277 74.724 75.2184 75.34C74.5277 75.9373 74.1357 76.7213 74.0424 77.692H80.8184ZM97.4718 83.516C96.6878 84.188 95.8665 84.6827 95.0078 85C94.1678 85.3173 93.2811 85.476 92.3478 85.476C90.9665 85.476 89.7625 85.2053 88.7358 84.664C87.7091 84.1227 86.9158 83.3573 86.3558 82.368C85.8145 81.36 85.5438 80.184 85.5438 78.84C85.5438 77.5147 85.8051 76.3573 86.3278 75.368C86.8505 74.36 87.5878 73.576 88.5398 73.016C89.5105 72.456 90.6211 72.176 91.8718 72.176C93.1038 72.176 94.1678 72.4373 95.0638 72.96C95.9598 73.464 96.6505 74.1733 97.1358 75.088C97.6398 76.0027 97.8918 77.076 97.8918 78.308C97.8918 78.5133 97.8825 78.7373 97.8638 78.98C97.8451 79.2227 97.8171 79.456 97.7798 79.68L88.2598 79.708C88.3158 80.5293 88.5305 81.2013 88.9038 81.724C89.2958 82.228 89.7811 82.6107 90.3598 82.872C90.9571 83.1147 91.6011 83.236 92.2918 83.236C93.0945 83.236 93.8411 83.1147 94.5318 82.872C95.2225 82.6293 95.8478 82.2747 96.4078 81.808L97.4718 83.516ZM95.0918 77.692C95.0918 76.7213 94.8025 75.9373 94.2238 75.34C93.6638 74.724 92.8985 74.416 91.9278 74.416C91.0131 74.416 90.2011 74.724 89.4918 75.34C88.8011 75.9373 88.4091 76.7213 88.3158 77.692H95.0918ZM113.649 85.588L110.009 84.328C108.927 85.0933 107.704 85.476 106.341 85.476C104.307 85.476 102.72 84.8787 101.581 83.684C100.461 82.4707 99.9013 80.8 99.9013 78.672C99.9013 76.6187 100.461 75.0227 101.581 73.884C102.72 72.7453 104.307 72.176 106.341 72.176C106.771 72.176 107.228 72.2227 107.713 72.316C108.199 72.4093 108.665 72.54 109.113 72.708V69.712L106.397 68.76L107.181 66.436L111.913 68.06V82.368L114.405 83.236L113.649 85.588ZM106.369 83.208C106.78 83.208 107.237 83.1333 107.741 82.984C108.245 82.8347 108.703 82.6387 109.113 82.396V75.088C108.759 74.9013 108.32 74.752 107.797 74.64C107.293 74.528 106.817 74.472 106.369 74.472C105.287 74.472 104.409 74.8547 103.737 75.62C103.084 76.3853 102.757 77.3933 102.757 78.644C102.757 80.0253 103.084 81.136 103.737 81.976C104.409 82.7973 105.287 83.208 106.369 83.208ZM122.925 68.508H129.981V71H128.301L128.273 75.368H135.721V71H134.069V68.508H141.069V71H138.605L138.549 82.508H141.041V85H134.069V82.508H135.721V77.86H128.273V82.508H129.925V85H122.925V82.508H125.417V71H122.925V68.508ZM154.866 83.516C154.082 84.188 153.261 84.6827 152.402 85C151.562 85.3173 150.676 85.476 149.742 85.476C148.361 85.476 147.157 85.2053 146.13 84.664C145.104 84.1227 144.31 83.3573 143.75 82.368C143.209 81.36 142.938 80.184 142.938 78.84C142.938 77.5147 143.2 76.3573 143.722 75.368C144.245 74.36 144.982 73.576 145.934 73.016C146.905 72.456 148.016 72.176 149.266 72.176C150.498 72.176 151.562 72.4373 152.458 72.96C153.354 73.464 154.045 74.1733 154.53 75.088C155.034 76.0027 155.286 77.076 155.286 78.308C155.286 78.5133 155.277 78.7373 155.258 78.98C155.24 79.2227 155.212 79.456 155.174 79.68L145.654 79.708C145.71 80.5293 145.925 81.2013 146.298 81.724C146.69 82.228 147.176 82.6107 147.754 82.872C148.352 83.1147 148.996 83.236 149.686 83.236C150.489 83.236 151.236 83.1147 151.926 82.872C152.617 82.6293 153.242 82.2747 153.802 81.808L154.866 83.516ZM152.486 77.692C152.486 76.7213 152.197 75.9373 151.618 75.34C151.058 74.724 150.293 74.416 149.322 74.416C148.408 74.416 147.596 74.724 146.886 75.34C146.196 75.9373 145.804 76.7213 145.71 77.692H152.486ZM156.932 85V82.76H159.284V69.432L156.54 68.676L157.212 66.408L162.084 67.78V82.76H164.436V85H156.932ZM165.957 91.02V88.808H168.309V75.34L165.677 74.472L166.405 72.176L170.297 73.52C170.895 73.1093 171.539 72.7827 172.229 72.54C172.92 72.2973 173.564 72.176 174.161 72.176C176.084 72.176 177.587 72.7547 178.669 73.912C179.771 75.0507 180.321 76.6187 180.321 78.616C180.321 79.9787 180.06 81.1827 179.537 82.228C179.015 83.2733 178.268 84.0853 177.297 84.664C176.345 85.224 175.216 85.504 173.909 85.504C172.92 85.504 171.996 85.3733 171.137 85.112V88.808H173.489V91.02H165.957ZM173.881 83.236C175.001 83.236 175.879 82.8347 176.513 82.032C177.148 81.2293 177.465 80.1 177.465 78.644C177.465 77.2813 177.176 76.2453 176.597 75.536C176.019 74.8267 175.169 74.472 174.049 74.472C173.508 74.472 172.967 74.5653 172.425 74.752C171.884 74.9387 171.445 75.1907 171.109 75.508V82.676C171.427 82.844 171.837 82.984 172.341 83.096C172.864 83.1893 173.377 83.236 173.881 83.236Z" fill="white"/>
<g filter="url(#filter1_d_1_183)">
<rect x="20" y="175" width="174" height="33" rx="10" fill="#21D111"/>
<path d="M34.028 188.234C34.028 188.222 33.938 188.198 33.758 188.162C33.578 188.114 33.356 188.066 33.092 188.018C32.828 187.97 32.564 187.946 32.3 187.946C31.292 187.946 30.518 188.264 29.978 188.9C29.438 189.536 29.168 190.46 29.168 191.672C29.168 192.896 29.444 193.832 29.996 194.48C30.548 195.128 31.316 195.452 32.3 195.452C32.6 195.452 32.882 195.416 33.146 195.344C33.41 195.26 33.62 195.182 33.776 195.11C33.944 195.038 34.028 195.002 34.028 195.002L34.424 193.382L36.368 193.832L35.792 196.55C35.792 196.55 35.642 196.622 35.342 196.766C35.054 196.898 34.646 197.036 34.118 197.18C33.59 197.324 32.984 197.396 32.3 197.396C31.208 197.396 30.242 197.198 29.402 196.802C28.574 196.394 27.926 195.77 27.458 194.93C26.99 194.078 26.756 192.992 26.756 191.672C26.756 190.472 26.984 189.452 27.44 188.612C27.896 187.772 28.538 187.13 29.366 186.686C30.206 186.23 31.178 186.002 32.282 186.002C33.026 186.002 33.662 186.08 34.19 186.236C34.73 186.392 35.138 186.554 35.414 186.722C35.702 186.878 35.846 186.956 35.846 186.956L36.386 189.656L34.424 190.088L34.028 188.234ZM45.1408 196.604C44.7328 196.832 44.2888 197.012 43.8088 197.144C43.3288 197.288 42.8788 197.36 42.4588 197.36C41.1868 197.36 40.2568 197.084 39.6688 196.532C39.0808 195.98 38.7868 195.11 38.7868 193.922V190.646H37.4188V188.828H41.0728V193.616C41.0728 194.216 41.1868 194.654 41.4148 194.93C41.6428 195.194 42.0148 195.326 42.5308 195.326C42.7708 195.326 43.0588 195.284 43.3948 195.2C43.7428 195.116 44.0668 195.014 44.3668 194.894V190.646H42.9988V188.828H46.6528V194.876L48.2188 195.416L47.5888 197.396L45.1408 196.604ZM54.2035 190.322C54.0115 190.262 53.8015 190.214 53.5735 190.178C53.3575 190.142 53.1475 190.124 52.9435 190.124C52.5355 190.124 52.1755 190.196 51.8635 190.34C51.5515 190.472 51.3955 190.694 51.3955 191.006C51.3955 191.246 51.4675 191.444 51.6115 191.6C51.7675 191.756 52.1215 191.876 52.6735 191.96L53.8795 192.14C54.7915 192.272 55.4635 192.536 55.8955 192.932C56.3275 193.328 56.5435 193.88 56.5435 194.588C56.5435 195.236 56.3695 195.77 56.0215 196.19C55.6735 196.598 55.2235 196.898 54.6715 197.09C54.1195 197.282 53.5315 197.378 52.9075 197.378C52.1995 197.378 51.5815 197.306 51.0535 197.162C50.5375 197.03 50.0515 196.832 49.5955 196.568L49.2715 194.66L51.1435 194.372L51.3055 195.254C51.5575 195.362 51.8035 195.446 52.0435 195.506C52.2835 195.554 52.5295 195.578 52.7815 195.578C53.2615 195.578 53.6695 195.5 54.0055 195.344C54.3535 195.188 54.5275 194.954 54.5275 194.642C54.5275 194.438 54.4495 194.258 54.2935 194.102C54.1375 193.934 53.7955 193.82 53.2675 193.76L52.1695 193.58C51.3055 193.436 50.6215 193.166 50.1175 192.77C49.6255 192.362 49.3795 191.81 49.3795 191.114C49.3795 190.586 49.5235 190.124 49.8115 189.728C50.0995 189.332 50.5075 189.026 51.0355 188.81C51.5635 188.594 52.1875 188.486 52.9075 188.486C53.4595 188.486 53.9815 188.552 54.4735 188.684C54.9655 188.816 55.4215 189.038 55.8415 189.35L56.1655 191.096L54.4915 191.384L54.2035 190.322ZM62.1361 197.36C61.5001 197.36 60.9541 197.24 60.4981 197C60.0421 196.748 59.6941 196.376 59.4541 195.884C59.2141 195.38 59.0941 194.75 59.0941 193.994V190.646H57.6001V188.828H59.0941V187.37L61.2901 186.668V188.828H63.4501V190.646H61.2901V193.49C61.2901 194.138 61.3861 194.636 61.5781 194.984C61.7821 195.32 62.0821 195.488 62.4781 195.488C62.8021 195.488 63.1921 195.368 63.6481 195.128L64.0801 196.82C63.7921 196.964 63.4801 197.09 63.1441 197.198C62.8081 197.306 62.4721 197.36 62.1361 197.36ZM69.2733 188.468C70.2093 188.468 71.0013 188.648 71.6493 189.008C72.2973 189.356 72.7893 189.866 73.1253 190.538C73.4613 191.198 73.6293 191.996 73.6293 192.932C73.6293 194.324 73.2513 195.41 72.4953 196.19C71.7393 196.97 70.6653 197.36 69.2733 197.36C68.3613 197.36 67.5813 197.186 66.9333 196.838C66.2973 196.49 65.8113 195.986 65.4753 195.326C65.1513 194.654 64.9893 193.856 64.9893 192.932C64.9893 191.996 65.1513 191.198 65.4753 190.538C65.8113 189.866 66.2973 189.356 66.9333 189.008C67.5813 188.648 68.3613 188.468 69.2733 188.468ZM69.2913 190.322C68.6073 190.322 68.0913 190.544 67.7433 190.988C67.3953 191.432 67.2213 192.08 67.2213 192.932C67.2213 193.784 67.3953 194.432 67.7433 194.876C68.0913 195.32 68.6073 195.542 69.2913 195.542C69.9873 195.542 70.5093 195.32 70.8573 194.876C71.2173 194.432 71.3973 193.784 71.3973 192.932C71.3973 192.08 71.2173 191.432 70.8573 190.988C70.5093 190.544 69.9873 190.322 69.2913 190.322ZM74.8866 197V195.164H76.3806V191.006L74.6706 190.484L75.2646 188.648L77.8926 189.476C78.2766 189.14 78.7026 188.888 79.1706 188.72C79.6506 188.552 80.1306 188.468 80.6106 188.468C81.0666 188.468 81.5046 188.558 81.9246 188.738C82.3446 188.906 82.6926 189.164 82.9686 189.512C83.3526 189.212 83.7726 188.966 84.2286 188.774C84.6846 188.57 85.1706 188.468 85.6866 188.468C86.8266 188.468 87.6546 188.75 88.1706 189.314C88.6866 189.878 88.9446 190.82 88.9446 192.14V195.164H90.4746V197H85.9926V195.164H86.6586V192.194C86.6586 191.558 86.5566 191.108 86.3526 190.844C86.1606 190.58 85.8186 190.448 85.3266 190.448C85.0986 190.448 84.8406 190.508 84.5526 190.628C84.2646 190.736 84.0186 190.874 83.8146 191.042V195.164H84.4806V197H80.8266V195.164H81.5286V192.194C81.5286 191.558 81.4266 191.108 81.2226 190.844C81.0306 190.58 80.6886 190.448 80.1966 190.448C79.9686 190.448 79.7106 190.508 79.4226 190.628C79.1466 190.736 78.8946 190.874 78.6666 191.042V195.164H79.3866V197H74.8866ZM99.2765 195.992C98.7245 196.46 98.1485 196.802 97.5485 197.018C96.9605 197.246 96.3785 197.36 95.8025 197.36C94.8665 197.36 94.0505 197.174 93.3545 196.802C92.6585 196.418 92.1185 195.896 91.7345 195.236C91.3625 194.564 91.1765 193.802 91.1765 192.95C91.1765 192.05 91.3565 191.264 91.7165 190.592C92.0765 189.92 92.5745 189.398 93.2105 189.026C93.8465 188.654 94.5845 188.468 95.4245 188.468C96.3005 188.468 97.0565 188.642 97.6925 188.99C98.3405 189.338 98.8385 189.824 99.1865 190.448C99.5465 191.06 99.7265 191.786 99.7265 192.626C99.7265 192.782 99.7145 192.962 99.6905 193.166C99.6785 193.37 99.6545 193.562 99.6185 193.742H93.3545C93.4025 194.15 93.5405 194.492 93.7685 194.768C93.9965 195.044 94.2845 195.248 94.6325 195.38C94.9925 195.512 95.3825 195.578 95.8025 195.578C96.3065 195.578 96.7925 195.494 97.2605 195.326C97.7285 195.158 98.1545 194.924 98.5385 194.624L99.2765 195.992ZM97.4585 192.23C97.4585 191.666 97.2845 191.21 96.9365 190.862C96.5885 190.502 96.1085 190.322 95.4965 190.322C94.9445 190.322 94.4645 190.502 94.0565 190.862C93.6485 191.21 93.4325 191.666 93.4085 192.23H97.4585ZM104.105 189.548C104.633 189.2 105.125 188.942 105.581 188.774C106.037 188.606 106.487 188.522 106.931 188.522C107.387 188.522 107.885 188.624 108.425 188.828L108.731 191.186L106.841 191.582L106.661 190.61C106.253 190.658 105.887 190.742 105.563 190.862C105.239 190.97 104.975 191.108 104.771 191.276L104.753 195.182H106.517V197H100.973V195.182H102.485V191.06L100.757 190.484L101.351 188.648L104.105 189.548ZM118.353 197.396C117.453 197.396 116.679 197.33 116.031 197.198C115.383 197.066 114.819 196.904 114.339 196.712L114.015 194.156L115.887 193.922L116.067 195.218C116.415 195.338 116.769 195.428 117.129 195.488C117.489 195.536 117.837 195.56 118.173 195.56C118.629 195.56 119.049 195.506 119.433 195.398C119.817 195.29 120.123 195.128 120.351 194.912C120.579 194.696 120.693 194.426 120.693 194.102C120.693 193.766 120.579 193.478 120.351 193.238C120.123 192.986 119.631 192.794 118.875 192.662L117.597 192.428C116.505 192.224 115.665 191.864 115.077 191.348C114.489 190.82 114.195 190.118 114.195 189.242C114.195 188.498 114.399 187.886 114.807 187.406C115.215 186.926 115.749 186.572 116.409 186.344C117.081 186.116 117.795 186.002 118.551 186.002C118.935 186.002 119.319 186.032 119.703 186.092C120.087 186.14 120.465 186.218 120.837 186.326C121.209 186.422 121.563 186.548 121.899 186.704L122.259 189.494L120.225 189.71L119.991 188.036C119.739 187.952 119.481 187.892 119.217 187.856C118.965 187.808 118.713 187.784 118.461 187.784C117.777 187.784 117.243 187.904 116.859 188.144C116.475 188.372 116.283 188.672 116.283 189.044C116.283 189.44 116.421 189.746 116.697 189.962C116.973 190.178 117.465 190.352 118.173 190.484L119.415 190.7C120.627 190.88 121.479 191.234 121.971 191.762C122.475 192.278 122.727 192.962 122.727 193.814C122.727 194.558 122.589 195.164 122.313 195.632C122.037 196.1 121.677 196.466 121.233 196.73C120.789 196.982 120.309 197.156 119.793 197.252C119.289 197.348 118.809 197.396 118.353 197.396ZM132.165 195.992C131.613 196.46 131.037 196.802 130.437 197.018C129.849 197.246 129.267 197.36 128.691 197.36C127.755 197.36 126.939 197.174 126.243 196.802C125.547 196.418 125.007 195.896 124.623 195.236C124.251 194.564 124.065 193.802 124.065 192.95C124.065 192.05 124.245 191.264 124.605 190.592C124.965 189.92 125.463 189.398 126.099 189.026C126.735 188.654 127.473 188.468 128.313 188.468C129.189 188.468 129.945 188.642 130.581 188.99C131.229 189.338 131.727 189.824 132.075 190.448C132.435 191.06 132.615 191.786 132.615 192.626C132.615 192.782 132.603 192.962 132.579 193.166C132.567 193.37 132.543 193.562 132.507 193.742H126.243C126.291 194.15 126.429 194.492 126.657 194.768C126.885 195.044 127.173 195.248 127.521 195.38C127.881 195.512 128.271 195.578 128.691 195.578C129.195 195.578 129.681 195.494 130.149 195.326C130.617 195.158 131.043 194.924 131.427 194.624L132.165 195.992ZM130.347 192.23C130.347 191.666 130.173 191.21 129.825 190.862C129.477 190.502 128.997 190.322 128.385 190.322C127.833 190.322 127.353 190.502 126.945 190.862C126.537 191.21 126.321 191.666 126.297 192.23H130.347ZM136.993 189.548C137.521 189.2 138.013 188.942 138.469 188.774C138.925 188.606 139.375 188.522 139.819 188.522C140.275 188.522 140.773 188.624 141.313 188.828L141.619 191.186L139.729 191.582L139.549 190.61C139.141 190.658 138.775 190.742 138.451 190.862C138.127 190.97 137.863 191.108 137.659 191.276L137.641 195.182H139.405V197H133.861V195.182H135.373V191.06L133.645 190.484L134.239 188.648L136.993 189.548ZM141.983 188.828H146.591V190.646H145.565L146.663 193.292L147.311 195.02L147.977 193.292L149.093 190.646H148.049V188.828H152.621V190.646H151.487L148.571 197H146.087L143.261 190.646H142.001L141.983 188.828ZM153.477 188.828H157.257V195.182H158.751V197H153.477V195.182H154.971V190.646H153.477V188.828ZM155.925 184.904C156.309 184.904 156.621 185.024 156.861 185.264C157.101 185.504 157.221 185.816 157.221 186.2C157.221 186.584 157.101 186.896 156.861 187.136C156.621 187.364 156.309 187.478 155.925 187.478C155.541 187.478 155.229 187.364 154.989 187.136C154.761 186.896 154.647 186.584 154.647 186.2C154.647 185.816 154.761 185.504 154.989 185.264C155.229 185.024 155.541 184.904 155.925 184.904ZM165.453 190.358C165.261 190.298 165.075 190.256 164.895 190.232C164.715 190.208 164.547 190.196 164.391 190.196C163.683 190.196 163.143 190.436 162.771 190.916C162.411 191.384 162.231 192.08 162.231 193.004C162.231 193.784 162.429 194.402 162.825 194.858C163.221 195.314 163.713 195.542 164.301 195.542C164.709 195.542 165.129 195.464 165.561 195.308C165.993 195.14 166.419 194.906 166.839 194.606L167.757 195.956C167.385 196.244 167.019 196.496 166.659 196.712C166.299 196.916 165.927 197.072 165.543 197.18C165.171 197.3 164.751 197.36 164.283 197.36C163.383 197.36 162.603 197.198 161.943 196.874C161.295 196.538 160.791 196.046 160.431 195.398C160.083 194.75 159.909 193.952 159.909 193.004C159.909 192.008 160.077 191.174 160.413 190.502C160.749 189.818 161.247 189.308 161.907 188.972C162.567 188.624 163.383 188.45 164.355 188.45C164.823 188.45 165.291 188.498 165.759 188.594C166.239 188.678 166.701 188.804 167.145 188.972L167.649 191.438L165.723 191.852L165.453 190.358ZM177.042 195.992C176.49 196.46 175.914 196.802 175.314 197.018C174.726 197.246 174.144 197.36 173.568 197.36C172.632 197.36 171.816 197.174 171.12 196.802C170.424 196.418 169.884 195.896 169.5 195.236C169.128 194.564 168.942 193.802 168.942 192.95C168.942 192.05 169.122 191.264 169.482 190.592C169.842 189.92 170.34 189.398 170.976 189.026C171.612 188.654 172.35 188.468 173.19 188.468C174.066 188.468 174.822 188.642 175.458 188.99C176.106 189.338 176.604 189.824 176.952 190.448C177.312 191.06 177.492 191.786 177.492 192.626C177.492 192.782 177.48 192.962 177.456 193.166C177.444 193.37 177.42 193.562 177.384 193.742H171.12C171.168 194.15 171.306 194.492 171.534 194.768C171.762 195.044 172.05 195.248 172.398 195.38C172.758 195.512 173.148 195.578 173.568 195.578C174.072 195.578 174.558 195.494 175.026 195.326C175.494 195.158 175.92 194.924 176.304 194.624L177.042 195.992ZM175.224 192.23C175.224 191.666 175.05 191.21 174.702 190.862C174.354 190.502 173.874 190.322 173.262 190.322C172.71 190.322 172.23 190.502 171.822 190.862C171.414 191.21 171.198 191.666 171.174 192.23H175.224Z" fill="#FFF2F2"/>
</g>
</g>
<defs>
<filter id="filter0_d_1_183" x="93" y="16" width="46" height="48" filterUnits="userSpaceOnUse" color-interpolation-filters="sRGB">
<feFlood flood-opacity="0" result="BackgroundImageFix"/>
<feColorMatrix in="SourceAlpha" type="matrix" values="0 0 0 0 0 0 0 0 0 0 0 0 0 0 0 0 0 0 127 0" result="hardAlpha"/>
<feOffset dy="6"/>
<feGaussianBlur stdDeviation="2"/>
<feComposite in2="hardAlpha" operator="out"/>
<feColorMatrix type="matrix" values="0 0 0 0 0 0 0 0 0 0 0 0 0 0 0 0 0 0 0.65 0"/>
<feBlend mode="normal" in2="BackgroundImageFix" result="effect1_dropShadow_1_183"/>
<feBlend mode="normal" in="SourceGraphic" in2="effect1_dropShadow_1_183" result="shape"/>
</filter>
<filter id="filter1_d_1_183" x="20" y="175" width="187" height="45" filterUnits="userSpaceOnUse" color-interpolation-filters="sRGB">
<feFlood flood-opacity="0" result="BackgroundImageFix"/>
<feColorMatrix in="SourceAlpha" type="matrix" values="0 0 0 0 0 0 0 0 0 0 0 0 0 0 0 0 0 0 127 0" result="hardAlpha"/>
<feMorphology radius="2" operator="dilate" in="SourceAlpha" result="effect1_dropShadow_1_183"/>
<feOffset dx="7" dy="6"/>
<feGaussianBlur stdDeviation="2"/>
<feComposite in2="hardAlpha" operator="out"/>
<feColorMatrix type="matrix" values="0 0 0 0 0 0 0 0 0 0 0 0 0 0 0 0 0 0 0.3 0"/>
<feBlend mode="normal" in2="BackgroundImageFix" result="effect1_dropShadow_1_183"/>
<feBlend mode="normal" in="SourceGraphic" in2="effect1_dropShadow_1_183" result="shape"/>
</filter>
<clipPath id="clip0_1_183">
<rect width="233" height="226" rx="5" fill="white"/>
</clipPath>
</defs>
</svg>
